<svg xmlns="http://www.w3.org/2000/svg" xmlns:xlink="http://www.w3.org/1999/xlink" width="50" height="47" viewBox="0 0 50 47">
  <defs>
    <polygon id="kiat-logo-a" points="0 .278 0 18.115 49.861 18.115 49.861 .278 0 .278"/>
  </defs>
  <g fill="none" fill-rule="evenodd">
    <path fill="#000" d="M9.46424983,18.1232624 C11.8890659,18.3015541 12.2920489,16.2750307 11.7991298,14.0772767 C11.0052706,15.4524175 10.2494613,16.7622437 9.46424983,18.1232624 M11.6832505,24.9760184 C11.7316777,23.9362778 11.8527455,22.8930066 11.8043184,21.8585617 C11.7610799,20.998878 11.0052706,21.065958 10.4293335,21.1153854 C7.77275903,21.3413392 5.73363055,22.575259 4.49182033,25.0378027 C3.91415374,26.1852245 3.096081,27.0590303 1.94074781,27.6150885 C1.41150836,27.8710519 1.11229782,27.8092676 0.851137176,27.2231999 C-0.143348722,24.9972016 0.228502527,23.0660025 1.72801431,21.2177707 C3.58381147,18.9335187 5.30297492,16.530994 7.01694975,14.1319999 C7.73470913,13.1293297 7.46663033,12.8292348 6.31302668,12.6121073 C5.38945195,12.4355809 4.43128641,12.0913543 3.65472264,11.5670708 C2.75536148,10.9580546 1.98571587,10.1213194 1.26103832,9.29164515 C0.579599288,8.5131636 0.927236967,7.73115151 1.95112506,7.61993986 C2.6965571,7.5387377 3.45409592,7.57933878 4.2012575,7.51049347 C6.37529015,7.30748808 8.54586372,7.07094267 10.7198964,6.85911095 C11.531051,6.77967406 12.1363902,6.3771938 12.2332445,5.54751958 C12.3456646,4.58545054 12.2972375,3.60043306 12.3093443,2.62600717 C12.3110738,2.46713338 12.253999,2.31002486 12.2453513,2.15115107 C12.2055718,1.42386218 11.9962974,0.460027876 12.8143701,0.221717196 C13.466407,0.0310686516 14.339825,0.269379332 15.0074277,0.571239526 C15.7684256,0.9137008 15.8012869,1.74514028 15.6058488,2.50243867 C15.465756,3.04790533 15.2478339,3.5439446 15.9811592,3.840509 C16.1298997,3.90052799 16.2181062,4.19709239 16.2734515,4.40186305 C16.4758078,5.17328355 16.9220293,5.43983846 17.7228066,5.41335949 C19.3848952,5.35687103 20.9414819,5.75758603 22.2974418,6.82910146 C22.8872151,7.2968965 23.5409815,7.68525464 24.1843707,8.07714331 C25.3448925,8.7797185 25.4261809,9.79651074 24.2587409,10.5079122 C23.4648817,10.9898294 22.5568729,11.3022812 21.6696185,11.5917845 C20.6318941,11.92895 19.5353653,12.0878238 18.5183954,12.4708861 C18.1171419,12.6244641 17.653625,13.1346255 17.5775252,13.5494626 C17.4235961,14.3844326 17.48413,15.2688301 17.5135322,16.130279 C17.5412049,16.8858122 18.0963874,17.0411554 18.7172925,17.2282734 C20.8671116,17.8761254 23.0480624,18.4657237 25.1148636,19.335999 C26.8841837,20.0809405 28.2418731,21.4190109 28.8904509,23.3802195 C29.1204798,24.0704378 28.9561734,24.5241108 28.4338521,24.9654268 C27.2335509,25.9822191 25.8205162,26.3211498 24.3780792,25.9575054 C22.688318,25.5356072 21.0452543,24.8983468 19.4194861,24.2575559 C18.2157257,23.7809345 18.0272058,23.8497798 17.9389992,25.1807891 C17.8300382,26.8666165 17.7228066,28.5524439 17.5585003,30.2347408 C17.5100731,30.73078 17.3267418,31.2356456 17.1053606,31.685788 C16.1835154,33.5534376 14.0942303,34.9303438 11.8423683,32.640796 C10.6524443,31.4333552 9.91393041,29.955829 9.4590612,28.3512038 C8.94711716,26.5471036 8.56488866,24.7024025 8.18093063,22.8629971 C8.11520808,22.541719 8.31064618,22.1657177 8.38674597,21.8144301 C8.72054733,21.9503554 9.09412812,22.0315576 9.37777279,22.2398588 C9.61299032,22.4146199 9.74097634,22.7394286 9.91738949,22.9971571 C10.3912836,23.6944365 10.8669073,24.3934812 11.342531,25.0907606 C11.4549512,25.0536901 11.5708304,25.013089 11.6832505,24.9760184" transform="translate(8.8)"/>
    <g transform="translate(0 28)">
      <mask id="kiat-logo-b" fill="#fff">
        <use xlink:href="#kiat-logo-a"/>
      </mask>
      <path fill="#000" d="M26.4666709,6.31801289 C24.4457195,6.76234754 22.6343097,7.68300894 21.0220511,9.00534886 C20.7969237,9.19019208 20.7207267,9.60786665 20.6393345,9.93489696 C20.3882309,10.9426479 20.2600814,11.9930551 19.8929506,12.9492632 C19.7665329,13.2834029 19.0963459,13.5393397 18.6512863,13.5802184 C16.401744,13.7917217 14.6994344,12.7075452 13.4387209,10.9177652 C12.8049007,10.0202092 12.3684999,8.9609154 11.9303673,7.93539102 C11.2584486,6.36422369 10.2557657,6.13494701 9.0331507,7.33820525 C9.01063796,7.36131065 8.98985697,7.38619339 8.96561248,7.40574412 C7.24252192,8.87560315 5.9281242,10.523196 5.85539073,13.0203568 C5.82941449,13.9534595 5.35318344,14.9612105 4.83885389,15.7734543 C3.86561079,17.3090748 2.26201094,17.246868 1.25932809,15.7663449 C-0.349467009,13.3847112 -0.44471322,11.1683699 1.13117864,8.78318154 C2.50099234,6.70725004 3.967784,4.69708008 5.46401539,2.71712487 C5.84500024,2.21236071 6.45284424,1.8160142 7.03817551,1.56896413 C7.75338797,1.26503923 8.1724713,1.63294832 8.03739485,2.40786795 C7.93868514,2.99438969 7.663337,3.55247402 7.4312826,4.108781 C7.24425367,4.55133831 6.97583253,4.95479418 6.80438935,5.40090617 C6.60870168,5.90567033 6.48228398,6.43709458 6.24157083,7.23334227 C7.03471201,6.86543318 7.66506875,6.63793384 8.23135077,6.29846216 C9.4158673,5.5910814 10.5778711,4.83748983 11.7346796,4.08034358 C12.5018445,3.5791341 13.2395698,3.54891934 14.0240522,4.03768746 C15.6016758,5.01877837 17.2901314,5.83102211 18.2754967,7.58170064 C18.4105732,7.82164135 19.0149537,7.99937521 19.2972288,7.89806691 C21.4532567,7.12492462 23.5954306,6.29668483 25.7168235,5.42756625 C26.1653465,5.24450037 26.5255504,4.83215781 26.915194,4.51045953 C28.5361113,3.17923291 29.5543799,3.18989694 31.1268083,4.54778364 C31.7606285,5.09520393 32.3113248,5.13963739 33.028269,4.5229009 C33.9062659,3.76575465 34.9124122,3.14013146 35.9341443,2.59093383 C37.262396,1.87644371 38.6529907,1.2774806 40.0297314,0.660744102 C41.2367607,0.122210504 42.3572025,0.129319858 43.6057937,0.824259254 C47.2112958,2.83265188 48.6763557,6.17760314 49.4313984,10.0379826 C49.7638942,11.7495597 50.1292933,13.4966835 49.5768653,15.1869325 C49.2945902,16.0471644 48.6954049,16.8789589 48.0442672,17.5081368 C47.3013467,18.2279589 46.3315671,18.2688377 45.323689,17.8351671 C42.892313,16.790092 41.4844008,14.7034964 41.5069136,11.8562 C41.5242311,9.28439103 41.2592734,6.78545294 40.1977111,4.4215926 C39.3370317,2.5020669 38.1282707,2.22657942 36.640698,3.68577441 C35.9635841,4.34872171 35.3453496,5.08809457 34.7807993,5.85590485 C34.1556378,6.70547271 34.250884,7.06627244 35.0803919,7.72566507 C36.3463007,8.7351934 36.7982872,11.3816506 35.6847724,12.533366 C35.1600524,13.0772316 34.1002218,13.3491644 33.3088124,13.3011763 C31.5181836,13.194536 30.0202205,12.3609642 29.0608314,10.6884885 C28.2347869,9.24884425 27.3689123,7.83586006 26.4666709,6.31801289" mask="url(#kiat-logo-b)"/>
    </g>
  </g>
</svg>
